<svg width="95" height="12" viewBox="0 0 95 12" fill="none" xmlns="http://www.w3.org/2000/svg">
<path d="M73.0956 3.52197C73.0956 3.26699 73.3187 3.04388 73.5737 3.04388C73.8366 3.04388 74.0518 3.26699 74.0518 3.52197V5.07576H75.0159C75.2709 5.07576 75.4621 5.26699 75.4621 5.52197C75.4621 5.77695 75.2709 5.96818 75.0159 5.96818H74.0518V10.0558C74.0518 10.6933 74.4103 11.0359 74.9123 11.0359C75.1673 11.0359 75.3745 11.2271 75.3745 11.4821C75.3745 11.7371 75.1673 11.9283 74.9123 11.9283C73.741 11.9283 73.1036 11.1395 73.1036 10.0638V5.97615H72.5219C72.2669 5.97615 72.0757 5.78492 72.0757 5.52994C72.0757 5.27496 72.2669 5.08372 72.5219 5.08372H73.1036V3.52197H73.0956Z" fill="#3955A4"/>
<path d="M79.1991 4.86859C81.5736 4.86859 82.0278 6.74907 82.0278 7.76102C82.0278 8.19129 82.0278 8.70922 81.4382 8.70922H77.1115C77.1115 10.1754 77.9561 11.1236 79.3505 11.1236C80.2111 11.1236 80.7131 10.7969 81.1274 10.4861C81.2151 10.4303 81.2788 10.3985 81.3904 10.3985C81.6294 10.3985 81.8206 10.5897 81.8206 10.8287C81.8206 10.9881 81.7489 11.0837 81.6613 11.1714C81.4382 11.3945 80.6653 12.0001 79.3505 12.0001C77.3824 12.0001 76.1473 10.9164 76.1473 8.43034C76.1473 6.14349 77.2708 4.86859 79.1991 4.86859ZM79.1991 5.72915C77.9083 5.72915 77.1991 6.55783 77.1115 7.88054H81.0955C81.0955 6.81281 80.729 5.72915 79.1991 5.72915Z" fill="#3955A4"/>
<path d="M85.8445 4.86859C87.1672 4.86859 87.8924 5.56182 88.1234 5.88851C88.1951 5.99209 88.227 6.06381 88.227 6.16739C88.227 6.42237 88.0358 6.59767 87.7967 6.59767C87.6453 6.59767 87.5417 6.5419 87.4382 6.42237C87.2151 6.16739 86.8167 5.72915 85.8366 5.72915C84.474 5.72915 83.7489 6.60564 83.7489 8.43034C83.7489 10.2869 84.474 11.1395 85.8366 11.1395C86.6971 11.1395 87.2151 10.757 87.5577 10.5021C87.6613 10.4303 87.733 10.3985 87.8366 10.3985C88.0756 10.3985 88.2668 10.5897 88.2668 10.8287C88.2668 10.9642 88.219 11.0678 88.0756 11.1953C87.7489 11.4582 87.0398 11.9921 85.8366 11.9921C83.9242 11.9921 82.7848 10.8527 82.7848 8.42237C82.7848 5.9921 83.9322 4.86859 85.8445 4.86859Z" fill="#3955A4"/>
<path d="M94.9999 7.4901V11.4503C94.9999 11.7132 94.7927 11.9283 94.5218 11.9283C94.2509 11.9283 94.0437 11.7212 94.0437 11.4503V7.68931C94.0437 6.51799 93.7011 5.72118 92.2668 5.72118C90.8007 5.72118 90.2987 6.61361 90.2987 7.79289V11.4503C90.2987 11.7132 90.0915 11.9283 89.8206 11.9283C89.5497 11.9283 89.3425 11.7212 89.3425 11.4503V1.72916C89.3425 1.46621 89.5497 1.25107 89.8206 1.25107C90.0915 1.25107 90.2987 1.45824 90.2987 1.72916V5.91242C90.5776 5.34668 91.3027 4.87656 92.2668 4.87656C94.5537 4.8686 94.9999 6.23114 94.9999 7.4901Z" fill="#3955A4"/>
<path d="M40.1633 2.48605C39.6773 2.48605 39.4064 2.76494 39.4064 3.26693C39.4064 3.72908 39.7012 4.0239 40.1633 4.0239C40.6255 4.0239 40.9203 3.72908 40.9203 3.26693C40.9203 2.76494 40.6494 2.48605 40.1633 2.48605ZM40.1633 4.89242C39.7888 4.89242 39.494 5.18725 39.494 5.56175V11.251C39.494 11.6255 39.7888 11.9203 40.1633 11.9203C40.5378 11.9203 40.8327 11.6255 40.8327 11.251V5.56175C40.8327 5.18725 40.5378 4.89242 40.1633 4.89242Z" fill="#555555"/>
<path d="M44.4262 4.82071C42.9681 4.82071 42.0597 5.55377 42.0597 6.74102C42.0597 8.18325 43.3426 8.61353 44.3705 8.96413C45.2231 9.25098 45.741 9.45815 45.741 9.90437C45.741 10.5737 44.9521 10.6773 44.482 10.6773C43.7968 10.6773 43.2868 10.4781 42.8645 10.0558C42.6972 9.88843 42.5139 9.84859 42.3944 9.84859C42.0438 9.84859 41.7649 10.1275 41.7649 10.4781C41.7649 10.6534 41.8286 10.7729 41.9083 10.8765V10.8844V10.8924C42.3386 11.4342 43.3027 11.984 44.482 11.984C45.2231 11.984 45.8525 11.8167 46.2988 11.498C46.8167 11.1315 47.0876 10.5896 47.0876 9.91233C47.0876 8.51791 45.8207 8.07967 44.8087 7.72907C43.9402 7.42628 43.4063 7.21115 43.4063 6.74899C43.4063 6.23904 43.9641 6.13545 44.4262 6.13545C45.1115 6.13545 45.4701 6.34262 45.7968 6.66134C45.9242 6.78883 46.0756 6.85258 46.2509 6.85258C46.6015 6.85258 46.8804 6.57369 46.8804 6.2231C46.8804 6.01592 46.7768 5.8725 46.737 5.82469C46.2509 5.1713 45.4302 4.82071 44.4262 4.82071Z" fill="#555555"/>
<path d="M50.3625 4.82071C48.9044 4.82071 47.996 5.55377 47.996 6.74102C47.996 8.18325 49.2789 8.61353 50.3067 8.96413C51.1593 9.25098 51.6773 9.45815 51.6773 9.90437C51.6773 10.5737 50.8884 10.6773 50.4183 10.6773C49.733 10.6773 49.2231 10.4781 48.8008 10.0558C48.6334 9.88843 48.4502 9.84859 48.3307 9.84859C47.9801 9.84859 47.7012 10.1275 47.7012 10.4781C47.7012 10.6534 47.7649 10.7729 47.8446 10.8765V10.8844V10.8924C48.2749 11.4342 49.239 11.984 50.4183 11.984C51.1593 11.984 51.7888 11.8167 52.235 11.498C52.753 11.1315 53.0239 10.5896 53.0239 9.91233C53.0239 8.51791 51.7569 8.07967 50.745 7.72907C49.8765 7.42628 49.3426 7.21115 49.3426 6.74899C49.3426 6.23904 49.9004 6.13545 50.3625 6.13545C51.0478 6.13545 51.4063 6.34262 51.733 6.66134C51.8605 6.78883 52.0119 6.85258 52.1872 6.85258C52.5378 6.85258 52.8167 6.57369 52.8167 6.2231C52.8167 6.01592 52.7131 5.8725 52.6733 5.82469C52.1872 5.1713 51.3665 4.82071 50.3625 4.82071Z" fill="#555555"/>
<path d="M56.6494 4.81271C55.1354 4.81271 54.4263 5.56969 54.1314 6.02387C54.0836 6.10355 54.0279 6.2151 54.0279 6.37447C54.0279 6.72506 54.3067 7.00395 54.6573 7.00395C54.8565 7.00395 55.0159 6.92427 55.1912 6.73303C55.6055 6.27088 55.996 6.09558 56.6494 6.09558C57.5418 6.09558 58.0757 6.58961 58.0757 7.41032V7.56171H56.3227C54.6733 7.56171 53.6454 8.40634 53.6454 9.76092C53.6454 10.4541 53.9004 11.0278 54.3864 11.4183C54.8486 11.7928 55.5099 11.984 56.2988 11.984C57.0079 11.984 57.6534 11.7609 58.0916 11.3705C58.1474 11.6812 58.4183 11.9123 58.737 11.9123C59.1035 11.9123 59.3984 11.6175 59.3984 11.251V7.40235C59.3984 5.80873 58.3466 4.81271 56.6494 4.81271ZM56.3864 10.733C55.4781 10.733 55.0159 10.4063 55.0159 9.76888C55.0159 8.97207 55.733 8.80474 56.3306 8.80474H58.0836V9.17127C58.0836 10.247 57.231 10.733 56.3864 10.733Z" fill="#555555"/>
<path d="M63.5577 1.76892C62.7051 1.76892 62.0039 2.04781 61.5338 2.5737C61.1274 3.03585 60.9043 3.6733 60.9043 4.3984V5.00398H60.6493C60.2908 5.00398 60.0039 5.29083 60.0039 5.64939C60.0039 6.00796 60.2908 6.29481 60.6493 6.29481H60.9043V11.251C60.9043 11.6255 61.1991 11.9203 61.5736 11.9203C61.9481 11.9203 62.2429 11.6255 62.2429 11.251V6.29481H63.2947C63.6533 6.29481 63.9402 6.00796 63.9402 5.64939C63.9402 5.29083 63.6533 5.00398 63.2947 5.00398H62.2429V4.40637C62.2429 3.51394 62.6812 3.05976 63.5497 3.05976C63.9083 3.05976 64.1951 2.7729 64.1951 2.41434C64.2031 2.05577 63.9162 1.76892 63.5577 1.76892Z" fill="#555555"/>
<path d="M65.2709 2.48605C64.7848 2.48605 64.5139 2.76494 64.5139 3.26693C64.5139 3.72908 64.8087 4.0239 65.2709 4.0239C65.733 4.0239 66.0279 3.72908 66.0279 3.26693C66.0279 2.76494 65.7569 2.48605 65.2709 2.48605ZM65.2709 4.89242C64.8964 4.89242 64.6016 5.18725 64.6016 5.56175V11.251C64.6016 11.6255 64.8964 11.9203 65.2709 11.9203C65.6454 11.9203 65.9402 11.6255 65.9402 11.251V5.56175C65.9402 5.18725 65.6454 4.89242 65.2709 4.89242Z" fill="#555555"/>
<path d="M70.3784 4.83667C69.6852 4.83667 69.0716 5.07571 68.6493 5.48209C68.6095 5.14742 68.3306 4.89244 67.98 4.89244C67.6055 4.89244 67.3107 5.18727 67.3107 5.56177V11.251C67.3107 11.6255 67.6055 11.9203 67.98 11.9203C68.3545 11.9203 68.6493 11.6255 68.6493 11.251V8.11156C68.6493 6.86854 69.2788 6.15141 70.3704 6.15141C70.737 6.15141 71.0318 5.85659 71.0318 5.49005C71.0398 5.13149 70.7449 4.83667 70.3784 4.83667Z" fill="#555555"/>
<path d="M37.7092 5.68127C37.2231 5.0996 36.4502 4.80478 35.4064 4.80478C34.514 4.80478 33.8287 5.08367 33.3586 5.63347C32.8965 5.10757 32.0678 4.80478 31.0957 4.80478C30.0518 4.80478 29.2869 5.0996 28.8008 5.68127C28.4263 6.13545 28.2351 6.749 28.2351 7.51394V11.251C28.2351 11.6255 28.5299 11.9203 28.9044 11.9203C29.2789 11.9203 29.5738 11.6255 29.5738 11.251V7.68924C29.5738 6.52589 30.004 6.0478 31.0877 6.0478C32.1634 6.0478 32.522 6.50996 32.522 7.68924V11.251C32.522 11.6255 32.8168 11.9203 33.1913 11.9203C33.5658 11.9203 33.8606 11.6255 33.8606 11.251V7.51394C33.8606 7.04382 33.9801 6.68525 34.2192 6.43824C34.4741 6.18326 34.8646 6.05577 35.3905 6.05577C36.4741 6.05577 36.9204 6.53386 36.9204 7.6972V11.259C36.9204 11.6335 37.2152 11.9283 37.5897 11.9283C37.9642 11.9283 38.259 11.6335 38.259 11.259V7.51394C38.2749 6.749 38.0837 6.13545 37.7092 5.68127Z" fill="#555555"/>
<path d="M25.8686 9.94421C25.8686 9.49799 25.7172 9.08365 25.4622 8.74899L25.4463 8.73305L18.769 0.733065L18.761 0.725097C18.4024 0.28685 17.8526 0 17.2471 0C16.6256 0 16.0678 0.29482 15.7092 0.749002L15.7172 0.733065L13.2471 3.68924L10.777 0.733065L10.769 0.725097C10.4104 0.28685 9.86063 0 9.25505 0C8.63353 0 8.07577 0.29482 7.7172 0.749002L7.72517 0.733065L1.04789 8.73305L1.03992 8.74102C0.78494 9.07569 0.633545 9.49003 0.633545 9.93624C0.633545 11.0199 1.51004 11.8964 2.5937 11.8964H2.57777H23.9084C24.9841 11.9044 25.8686 11.0279 25.8686 9.94421ZM7.58971 10.2868H2.88852H2.58573H2.5937H2.57777H2.58573C2.40247 10.2789 2.25107 10.1275 2.25107 9.94421C2.25107 9.88046 2.26701 9.81672 2.30685 9.76094L2.29888 9.76891L9.00804 1.72111C9.07178 1.65737 9.15943 1.61753 9.25505 1.61753C9.35863 1.61753 9.44628 1.66534 9.51003 1.73705L12.1953 4.95617L7.84469 10.1673L7.85266 10.1514C7.80485 10.2311 7.70127 10.2868 7.58971 10.2868ZM15.9164 10.2868H10.5857C10.3945 10.2868 10.2351 10.1275 10.2351 9.93624C10.2351 9.86453 10.259 9.80078 10.2909 9.74501L12.9762 6.52588C13.0399 6.4462 13.1355 6.3984 13.2471 6.3984C13.3507 6.3984 13.4463 6.44621 13.51 6.51792L16.2112 9.76891C16.259 9.83265 16.259 9.8964 16.259 9.93624C16.259 10.1275 16.1076 10.2868 15.9164 10.2868ZM23.9084 10.2868H18.9124C18.8088 10.2868 18.7212 10.247 18.6574 10.1753V10.1833L18.6495 10.1753C18.6495 10.1753 18.6495 10.1753 18.6574 10.1833L14.2989 4.95617L16.9921 1.72908L17.0001 1.72111C17.0638 1.65737 17.1515 1.61753 17.2471 1.61753C17.3507 1.61753 17.4383 1.66534 17.502 1.73705L17.51 1.74502L24.2032 9.78485L24.2112 9.79281C24.251 9.84859 24.251 9.8964 24.251 9.96015C24.251 10.1354 24.0997 10.2868 23.9084 10.2868Z" fill="#3955A4"/>
</svg>
