<svg width="12" height="12" viewBox="0 0 12 12" fill="none" xmlns="http://www.w3.org/2000/svg">
<g clip-path="url(#clip0_1160_458)">
<path d="M6.00001 11.1892C5.93931 11.1892 5.87863 11.1735 5.82425 11.1421C5.76519 11.108 4.36197 10.2933 2.93861 9.0657C2.095 8.33813 1.4216 7.61649 0.937144 6.92086C0.310239 6.02073 -0.00501773 5.1549 6.81938e-05 4.34741C0.00602131 3.4078 0.34256 2.52416 0.947762 1.85924C1.56318 1.18312 2.38448 0.810791 3.26041 0.810791C4.38299 0.810791 5.40934 1.43962 6.00003 2.43576C6.59073 1.43964 7.61708 0.810791 8.73966 0.810791C9.56719 0.810791 10.3567 1.14674 10.9629 1.75677C11.6282 2.42622 12.0061 3.37211 12 4.35186C11.9948 5.15795 11.6737 6.02246 11.0454 6.92136C10.5594 7.61663 9.88697 8.33794 9.04667 9.0653C7.62851 10.2928 6.23537 11.1075 6.17675 11.1416C6.12212 11.1733 6.06104 11.1892 6.00001 11.1892Z" fill="url(#paint0_linear_1160_458)"/>
</g>
<defs>
<linearGradient id="paint0_linear_1160_458" x1="3.18007" y1="14.084" x2="14.4811" y2="7.92436" gradientUnits="userSpaceOnUse">
<stop stop-color="#CF00AD"/>
<stop offset="0.3492" stop-color="#E1004C"/>
<stop offset="1" stop-color="#F8479E"/>
</linearGradient>
<clipPath id="clip0_1160_458">
<rect width="12" height="12" fill="white"/>
</clipPath>
</defs>
</svg>
